<svg id="Capa_1" enable-background="new 0 0 512 512" height="512" fill='white' viewBox="0 0 512 512" width="512" xmlns="http://www.w3.org/2000/svg"><g><path d="m422 91v307.918c0 6.951 1.643 13.91 4.751 20.125l40.249 80.498 40.249-80.497c3.108-6.215 4.751-13.175 4.751-20.125v-307.919zm60 30v30h-30v-30zm-1.583 284.626-13.417 26.833-13.417-26.833c-1.035-2.071-1.583-4.391-1.583-6.708v-217.918h30v217.918c0 2.317-.548 4.637-1.583 6.708z"/><path d="m0 0v512h390v-413.213l-98.787-98.787zm300 51.213 38.787 38.787h-38.787zm-270 430.787v-452h240v90h90v362z"/><path d="m300 270h-90v-30h60v-90h-150v90h60v30h-90v60h-30v90h90v-90h-30v-30h150v30h-30v90h90v-90h-30zm-150-90h90v30h-90zm-30 210h-30v-30h30zm180 0h-30v-30h30z"/></g></svg>