<?xml version="1.0" encoding="UTF-8"?>
<svg xmlns="http://www.w3.org/2000/svg" id="Outline" fill='white' viewBox="0 0 512 512" width="512" height="512"><path d="M488,16H136a8,8,0,0,0-8,8V180.686l-25.858-25.858a36.971,36.971,0,0,0-52.284,0L26.829,177.857a36.971,36.971,0,0,0,0,52.286L128,331.313V400H104a8,8,0,0,0-8,8v48a40.045,40.045,0,0,0,40,40H456a40.045,40.045,0,0,0,40-40V24A8,8,0,0,0,488,16ZM200.686,276,192,284.686,111.314,204,120,195.314ZM304,312V288h16v24a8,8,0,0,0,8,8h56v16H328a8,8,0,0,0-8,8v24H254.11l-13.091-48H296A8,8,0,0,0,304,312Zm32-8V64H448V304Zm112,48v16H336V352ZM236.6,364.6l-23.479-6.4,17.075-17.076ZM51.314,232,104,179.314,108.686,184,56,236.686ZM100,215.314,180.686,296,168,308.686,87.314,228Zm111.585,72.415a56.092,56.092,0,0,1,9.168,18.774l4.593,16.838-30.006,30L178.5,348.754a56.1,56.1,0,0,1-18.773-9.169ZM288,304H236.655l-.465-1.707a72.132,72.132,0,0,0-18.551-31.969L187.314,240H288ZM38.142,189.172l23.029-23.029a20.97,20.97,0,0,1,29.658,0L92.686,168,40,220.686l-1.857-1.857a20.97,20.97,0,0,1,0-29.657ZM76,239.314,156.686,320,148,328.686,67.314,248ZM136,480a24.028,24.028,0,0,1-24-24V416H416v40a39.794,39.794,0,0,0,8.019,24Zm344-24a24,24,0,0,1-48,0V408a8,8,0,0,0-8-8H144V347.259a72.123,72.123,0,0,0,30.292,16.931l71.6,19.528A7.978,7.978,0,0,0,248,384H456a8,8,0,0,0,8-8V344a8,8,0,0,0-8-8H400V320h56a8,8,0,0,0,8-8V56a8,8,0,0,0-8-8H328a8,8,0,0,0-8,8V88H304V56a8,8,0,0,0-8-8H168a8,8,0,0,0-8,8v80a8,8,0,0,0,8,8H296a8,8,0,0,0,8-8V104h16V272H304V232a8,8,0,0,0-8-8H171.314L144,196.686V32H480ZM288,64v64H176V64Z"/><path d="M232,208h64a8,8,0,0,0,0-16H232a8,8,0,0,0,0,16Z"/><path d="M232,176h64a8,8,0,0,0,0-16H232a8,8,0,0,0,0,16Z"/><path d="M184,208a24,24,0,1,0-24-24A24.027,24.027,0,0,0,184,208Zm0-32a8,8,0,1,1-8,8A8.009,8.009,0,0,1,184,176Z"/><path d="M424,80H360a8,8,0,0,0-8,8v48a8,8,0,0,0,8,8h64a8,8,0,0,0,8-8V88A8,8,0,0,0,424,80Zm-8,48H368V96h48Z"/><path d="M424,160H360a8,8,0,0,0-8,8v48a8,8,0,0,0,8,8h64a8,8,0,0,0,8-8V168A8,8,0,0,0,424,160Zm-8,48H368V176h48Z"/><path d="M424,272H360a8,8,0,0,0,0,16h64a8,8,0,0,0,0-16Z"/><path d="M424,240H360a8,8,0,0,0,0,16h64a8,8,0,0,0,0-16Z"/></svg>
