<svg height="487pt" viewBox="-28 0 487 487.312" width="487pt" xmlns="http://www.w3.org/2000/svg"><path d="m10.1875 374.964844c14.277344 22.316406 42.175781 34.039062 79.933594 34.039062 9.261718-.035156 18.511718-.664062 27.691406-1.890625 2.929688-.382812 5.886719-.820312 8.867188-1.3125 1.191406 2.773438 2.414062 5.5 3.671874 8.175781 22.253907 47.292969 52.46875 73.335938 85.082032 73.335938 32.613281 0 62.828125-26.042969 85.082031-73.335938 1.257813-2.671874 2.484375-5.398437 3.671875-8.175781 2.980469.488281 5.933594.929688 8.867188 1.3125 9.179687 1.226563 18.429687 1.855469 27.691406 1.890625 37.753906 0 65.660156-11.722656 79.933594-34.039062 17.578124-27.472656 11.921874-66.960938-15.921876-111.191406-4.226562-6.71875-8.886718-13.425782-13.976562-20.117188 5.078125-6.683594 9.738281-13.386719 13.976562-20.117188 27.84375-44.230468 33.5-83.71875 15.921876-111.191406-17.574219-27.472656-55.796876-38.886718-107.625-32.148437-2.929688.378906-5.886719.816406-8.867188 1.3125-1.191406-2.773438-2.414062-5.5-3.671875-8.175781-22.253906-47.292969-52.472656-73.335938-85.082031-73.335938s-62.828125 26.042969-85.082032 73.335938c-1.261718 2.671874-2.484374 5.398437-3.671874 8.175781-2.980469-.492188-5.9375-.929688-8.867188-1.3125-51.828125-6.738281-90.050781 4.679687-107.625 32.148437-17.578125 27.472656-11.921875 66.960938 15.921875 111.191406 4.226563 6.71875 8.886719 13.425782 13.972656 20.117188-5.074219 6.683594-9.734375 13.386719-13.972656 20.117188-27.84375 44.230468-33.5 83.71875-15.921875 111.191406zm106.714844-55.902344c11.046875 8.441406 22.625 16.542969 34.742187 24.304688 15.167969 9.71875 30.84375 18.617187 46.960938 26.65625-20.410157 8.617187-41.585938 15.285156-63.246094 19.925781-8.140625-21.304688-14.355469-45.257813-18.457031-70.894531zm-2.734375-19.972656c-4.136719-36.835938-4.136719-74.023438 0-110.859375 14.382812-11.671875 29.414062-22.515625 45.023437-32.488281 18.039063-11.570313 36.828125-21.9375 56.242188-31.027344 19.414062 9.089844 38.203125 19.453125 56.246094 31.023437 15.609374 9.972657 30.640624 20.816407 45.019531 32.484375 2.082031 18.40625 3.117187 36.914063 3.101562 55.433594.015625 18.519531-1.019531 37.027344-3.101562 55.433594-14.378907 11.667968-29.410157 22.511718-45.019531 32.480468-18.042969 11.574219-36.832032 21.9375-56.246094 31.027344-19.410156-9.089844-38.199219-19.453125-56.242188-31.027344-15.609375-9.96875-30.640625-20.8125-45.023437-32.484374zm173.679687 108.929687c-19.8125 42.109375-45.53125 65.300781-72.414062 65.300781-26.882813 0-52.601563-23.1875-72.414063-65.300781-.761719-1.613281-1.5-3.257812-2.238281-4.910156 24-5.203125 49.234375-13.710937 74.652344-25.125 25.417968 11.414063 50.648437 19.925781 74.652344 25.125-.734376 1.648437-1.476563 3.292969-2.238282 4.90625zm7.660156-18.070312c-21.660156-4.636719-42.835937-11.308594-63.246093-19.925781 16.117187-8.039063 31.792969-16.9375 46.960937-26.65625 12.089844-7.734376 23.667969-15.832032 34.742188-24.300782-4.105469 25.625-10.316406 49.578125-18.457032 70.878906zm97.402344-118.714844c24.789063 39.382813 30.464844 73.542969 15.976563 96.1875s-47.875 31.816406-94.027344 25.8125c-1.773437-.230469-3.554687-.488281-5.347656-.761719 9.558593-25.710937 16.457031-54.933594 20.402343-86.144531 18.789063-15.523437 36.144532-32.710937 51.847657-51.351563 4.007812 5.40625 7.722656 10.824219 11.148437 16.253907zm-60.863281-69.941406c14.730469 13.027343 28.410156 27.191406 40.914063 42.363281-12.503907 15.171875-26.183594 29.339844-40.910157 42.367188 1.15625-13.855469 1.75-28.015626 1.75-42.367188s-.59375-28.511719-1.75-42.367188zm-17.183594-107.210938c46.148438-6 79.539063 3.164063 94.023438 25.8125 14.488281 22.644531 8.816406 56.804688-15.976563 96.1875-3.414062 5.421875-7.128906 10.84375-11.140625 16.257813-15.707031-18.640625-33.058593-35.828125-51.851562-51.351563-3.945313-31.210937-10.84375-60.433593-20.398438-86.144531 1.785157-.273438 3.570313-.53125 5.34375-.761719zm-.902343 74.171875c-11.046876-8.441406-22.625-16.542968-34.742188-24.300781-15.167969-9.71875-30.84375-18.617187-46.960938-26.65625 20.410157-8.617187 41.585938-15.289063 63.246094-19.925781 8.144532 21.292968 14.355469 45.246094 18.460938 70.886718zm-170.941407-88.957031c19.8125-42.109375 45.53125-65.296875 72.414063-65.296875 26.882812 0 52.601562 23.1875 72.414062 65.296875.761719 1.613281 1.5 3.257813 2.238282 4.910156-24 5.199219-49.234376 13.710938-74.652344 25.121094-25.417969-11.410156-50.648438-19.921875-74.652344-25.121094.734375-1.652343 1.476562-3.296875 2.238281-4.910156zm-7.660156 18.070313c21.660156 4.636718 42.835937 11.308593 63.246094 19.925781-16.117188 8.039062-31.792969 16.9375-46.960938 26.652343-12.089843 7.734376-23.671875 15.835938-34.742187 24.308594 4.101562-25.636718 10.316406-49.589844 18.457031-70.886718zm-97.402344 118.714843c-24.789062-39.382812-30.464843-73.542969-15.976562-96.1875 11.589843-18.117187 35.273437-27.605469 67.914062-27.605469 8.734375.035157 17.457031.632813 26.113281 1.792969 1.769532.230469 3.554688.488281 5.34375.761719-9.558593 25.710938-16.457031 54.933594-20.398437 86.144531-18.789063 15.523438-36.144531 32.710938-51.847656 51.351563-4.007813-5.410156-7.722657-10.828125-11.148438-16.257813zm60.859375 69.9375c-14.726562-13.023437-28.40625-27.191406-40.910156-42.363281 12.503906-15.171875 26.183594-29.339844 40.910156-42.367188-1.15625 13.855469-1.75 28.015626-1.75 42.367188s.59375 28.511719 1.75 42.363281zm-49.71875-31.046875c15.707032 18.640625 33.058594 35.828125 51.847656 51.351563 3.949219 31.210937 10.847657 60.433593 20.40625 86.144531-1.789062.273438-3.574218.53125-5.347656.761719-8.65625 1.160156-17.375 1.757812-26.109375 1.792969-32.636719 0-56.328125-9.492188-67.914062-27.605469-14.488281-22.644531-8.816407-56.804688 15.976562-96.1875 3.414063-5.425781 7.128907-10.84375 11.140625-16.257813zm0 0"/><path d="m182.832031 198.125c8.75 2.976562 20.4375 4.617188 32.675781 4.617188 12.234376 0 23.785157-1.640626 32.535157-4.617188 8.789062-2.992188 11.140625-6.171875 11.253906-6.800781-.113281-.570313-2.492187-3.75-11.28125-6.742188-8.746094-2.976562-20.335937-4.617187-32.570313-4.617187-12.238281 0-23.863281 1.640625-32.609374 4.617187-8.769532 2.984375-11.398438 6.152344-11.398438 6.789063v.011718c-.003906.589844 2.625 3.757813 11.394531 6.742188zm0 0"/><path d="m182.832031 302.867188c8.75 2.980468 20.460938 4.621093 32.710938 4.621093 7.554687.039063 15.101562-.636719 22.53125-2.015625 15.5-2.976562 21.363281-7.929687 21.363281-9.398437v-17.761719c-2 .796875-3.566406 1.566406-5.59375 2.300781-10.335938 3.742188-24.035156 5.800781-38.398438 5.800781-14.363281 0-28.039062-2.058593-38.375-5.800781-2.027343-.734375-3.632812-1.5-5.632812-2.300781v17.792969c-.003906.597656 2.605469 3.773437 11.394531 6.761719zm0 0"/><path d="m182.832031 232.957031c8.75 2.976563 20.460938 4.617188 32.710938 4.617188 12.246093 0 23.839843-1.640625 32.585937-4.617188 8.773438-2.988281 11.308594-6.15625 11.308594-6.789062v-17.527344c-2 .792969-3.566406 1.5625-5.601562 2.300781-10.335938 3.742188-24.035157 5.796875-38.398438 5.796875s-28.03125-2.058593-38.371094-5.796875c-2.03125-.734375-3.636718-1.5-5.636718-2.300781v17.550781c.003906.597656 2.613281 3.773438 11.402343 6.765625zm0 0"/><path d="m182.832031 267.792969c8.75 2.976562 20.460938 4.617187 32.710938 4.617187 12.246093 0 23.839843-1.640625 32.585937-4.617187 8.765625-2.984375 11.308594-6.148438 11.308594-6.785157v-17.527343c-2 .792969-3.5625 1.5625-5.59375 2.296875-10.335938 3.742187-24.035156 5.800781-38.398438 5.800781-14.363281 0-28.039062-2.058594-38.375-5.800781-2.027343-.730469-3.632812-1.5-5.632812-2.296875v17.546875c-.003906.597656 2.605469 3.773437 11.394531 6.765625zm0 0"/></svg>